<svg width="1294" height="366" viewBox="0 0 1294 366" fill="none" xmlns="http://www.w3.org/2000/svg">
<path d="M22.4575 234.313L124.957 57.8129C86.8883 54.8579 68.6142 59.1102 45.4575 84.8129L4.95748 154.813C-5.35578 186.273 0.396267 203.638 22.4575 234.313Z" fill="#0055FF"/>
<path d="M243.958 128.813L141.458 305.313C179.527 308.268 197.801 304.016 220.958 278.313L261.458 208.313C271.771 176.853 266.019 159.488 243.958 128.813Z" fill="#0055FF"/>
<path d="M131.957 181.313L62.457 303.313C62.457 303.313 127.957 314.313 147.457 265.813C166.957 217.313 131.957 181.313 131.957 181.313Z" fill="#0055FF"/>
<path d="M133.867 180.884L203.367 58.8843C203.367 58.8843 137.867 47.8843 118.367 96.3843C98.8672 144.884 133.867 180.884 133.867 180.884Z" fill="#0055FF"/>
<path d="M431.5 293.7C405.5 293.7 384.7 287.5 369.1 275.1C353.5 262.7 344.4 245 341.8 222H372.7C374.5 237 380.5 248.4 390.7 256.2C400.9 264 414.7 267.9 432.1 267.9C446.7 267.9 457.7 265.2 465.1 259.8C472.7 254.4 476.5 246.7 476.5 236.7C476.5 227.7 474 220.6 469 215.4C464 210 456.1 205.6 445.3 202.2L407.8 190.2C388.6 184 374.5 176.2 365.5 166.8C356.5 157.4 352 145.5 352 131.1C352 118.9 355 108.4 361 99.6C367.2 90.8 375.8 84 386.8 79.2C398 74.2 411 71.7 425.8 71.7C448.6 71.7 466.8 77.5 480.4 89.1C494.2 100.5 502.1 116.4 504.1 136.8H473.2C470.8 123.2 465.6 113.3 457.6 107.1C449.6 100.7 438.6 97.5 424.6 97.5C411.4 97.5 401.1 100.1 393.7 105.3C386.3 110.5 382.6 117.8 382.6 127.2C382.6 134.8 385 141.2 389.8 146.4C394.8 151.4 403 155.7 414.4 159.3L453.7 171.9C471.9 177.7 485.3 185.6 493.9 195.6C502.7 205.6 507.1 218.2 507.1 233.4C507.1 252.6 500.5 267.5 487.3 278.1C474.1 288.5 455.5 293.7 431.5 293.7ZM605.228 294C589.828 294 576.228 290.6 564.428 283.8C552.828 277 543.728 267.6 537.128 255.6C530.528 243.6 527.228 229.8 527.228 214.2C527.228 198.4 530.428 184.6 536.828 172.8C543.428 160.8 552.628 151.5 564.428 144.9C576.228 138.3 589.728 135 604.928 135C619.728 135 632.528 138.2 643.328 144.6C654.328 150.8 662.728 159.5 668.528 170.7C674.528 181.9 677.528 195.2 677.528 210.6C677.528 213 677.428 215.3 677.228 217.5C677.228 219.5 677.028 221.6 676.628 223.8H548.228V200.4H654.728L646.928 209.7C646.928 193.3 643.228 180.8 635.828 172.2C628.428 163.6 618.128 159.3 604.928 159.3C590.728 159.3 579.428 164.2 571.028 174C562.828 183.6 558.728 197 558.728 214.2C558.728 231.6 562.828 245.2 571.028 255C579.428 264.8 591.028 269.7 605.828 269.7C614.828 269.7 622.628 267.9 629.228 264.3C635.828 260.5 640.728 255 643.928 247.8H673.328C668.328 262.2 659.828 273.5 647.828 281.7C636.028 289.9 621.828 294 605.228 294ZM709.443 291V138H739.143V174H740.643V291H709.443ZM818.043 291V192.6C818.043 182 815.343 174.1 809.943 168.9C804.743 163.7 796.943 161.1 786.543 161.1C777.543 161.1 769.543 163.1 762.543 167.1C755.743 171.1 750.343 176.6 746.343 183.6C742.543 190.6 740.643 198.9 740.643 208.5L736.743 171.9C741.743 160.5 749.443 151.5 759.843 144.9C770.243 138.3 782.343 135 796.143 135C812.543 135 825.443 139.6 834.843 148.8C844.243 158 848.943 170.2 848.943 185.4V291H818.043ZM951.496 294C933.696 294 920.596 289.9 912.196 281.7C903.996 273.3 899.896 261 899.896 244.8V102.9L930.796 91.2V245.1C930.796 253.1 932.896 259 937.096 262.8C941.296 266.6 948.096 268.5 957.496 268.5C961.096 268.5 964.296 268.2 967.096 267.6C969.896 267 972.296 266.3 974.296 265.5V290.7C972.096 291.7 968.996 292.5 964.996 293.1C960.996 293.7 956.496 294 951.496 294ZM869.296 162.9V138H974.296V162.9H869.296ZM1003.29 291V138H1034.49V291H1003.29ZM1001.79 108V72.9H1036.29V108H1001.79ZM1171.04 291C1170.04 287.2 1169.34 283 1168.94 278.4C1168.74 273.8 1168.64 268.2 1168.64 261.6H1167.14V188.7C1167.14 178.9 1164.64 171.6 1159.64 166.8C1154.84 161.8 1147.14 159.3 1136.54 159.3C1126.34 159.3 1118.14 161.3 1111.94 165.3C1105.94 169.3 1102.44 175 1101.44 182.4H1071.74C1073.14 168 1079.64 156.5 1091.24 147.9C1102.84 139.3 1118.34 135 1137.74 135C1157.74 135 1172.74 139.7 1182.74 149.1C1192.74 158.3 1197.74 171.9 1197.74 189.9V261.6C1197.74 266.2 1198.04 270.9 1198.64 275.7C1199.24 280.5 1200.14 285.6 1201.34 291H1171.04ZM1118.24 294C1102.64 294 1090.24 290.2 1081.04 282.6C1071.84 274.8 1067.24 264.3 1067.24 251.1C1067.24 237.5 1072.04 226.8 1081.64 219C1091.44 211 1105.44 205.6 1123.64 202.8L1174.04 194.7V216.6L1128.44 223.8C1118.24 225.4 1110.54 228.1 1105.34 231.9C1100.34 235.7 1097.84 241.2 1097.84 248.4C1097.84 255.4 1100.14 260.7 1104.74 264.3C1109.54 267.7 1116.44 269.4 1125.44 269.4C1137.44 269.4 1147.34 266.5 1155.14 260.7C1163.14 254.9 1167.14 247.6 1167.14 238.8L1171.04 261C1167.44 271.6 1161.04 279.8 1151.84 285.6C1142.64 291.2 1131.44 294 1118.24 294ZM1240.01 291V75H1271.21V291H1240.01Z" fill="black"/>
</svg>
