<svg width="350" height="350" viewBox="0 0 350 350" fill="none" xmlns="http://www.w3.org/2000/svg">
<path d="M164 11C164 4.92487 168.925 0 175 0V0C181.075 0 186 4.92487 186 11V339C186 345.075 181.075 350 175 350V350C168.925 350 164 345.075 164 339V11Z" fill="#0666FF"/>
<path d="M164 11C164 4.92487 168.925 0 175 0V0C181.075 0 186 4.92487 186 11V339C186 345.075 181.075 350 175 350V350C168.925 350 164 345.075 164 339V11Z" fill="#0666FF"/>
<path d="M339 186C345.075 186 350 181.075 350 175V175C350 168.925 345.075 164 339 164H11C4.92487 164 0 168.925 0 175V175C0 181.075 4.92487 186 11 186H339Z" fill="#0666FF"/>
<path d="M282.709 298.266C287.005 302.561 293.97 302.561 298.265 298.266V298.266C302.561 293.97 302.561 287.005 298.265 282.709L66.3345 50.7782C62.0387 46.4824 55.0739 46.4824 50.7781 50.7782V50.7782C46.4823 55.0739 46.4823 62.0387 50.7781 66.3345L282.709 298.266Z" fill="#0666FF"/>
<path d="M50.7782 282.709C46.4824 287.005 46.4824 293.97 50.7782 298.266V298.266C55.0739 302.561 62.0388 302.561 66.3345 298.266L298.266 66.3346C302.561 62.0388 302.561 55.074 298.266 50.7782V50.7782C293.97 46.4825 287.005 46.4825 282.709 50.7782L50.7782 282.709Z" fill="#0666FF"/>
</svg>
